<?xml version="1.0" standalone="no"?>
<!DOCTYPE svg PUBLIC "-//W3C//DTD SVG 20010904//EN"
 "http://www.w3.org/TR/2001/REC-SVG-20010904/DTD/svg10.dtd">
<svg version="1.0" xmlns="http://www.w3.org/2000/svg"
 width="1024.000000pt" height="1024.000000pt" viewBox="0 0 1024.000000 1024.000000"
 preserveAspectRatio="xMidYMid meet">
<metadata>
Created by potrace 1.11, written by Peter Selinger 2001-2013
</metadata>
<g transform="translate(0.000000,1024.000000) scale(0.100000,-0.100000)"
fill="#000000" stroke="none">
<path d="M6653 9879 c3 -8 24 -59 47 -113 23 -55 42 -108 43 -118 1 -10 5 -18
9 -18 4 0 7 -3 6 -7 -1 -5 10 -46 25 -93 31 -99 84 -301 90 -347 3 -17 7 -35
10 -40 3 -4 8 -30 11 -57 4 -27 9 -52 10 -55 2 -3 7 -28 10 -56 6 -45 11 -79
22 -138 2 -10 6 -45 9 -78 4 -33 8 -69 10 -79 2 -10 6 -50 10 -87 3 -37 8 -88
10 -113 2 -25 7 -85 11 -135 3 -49 8 -92 10 -94 9 -10 545 0 764 14 113 8 409
17 558 19 l142 1 -5 55 c-3 30 -8 75 -11 100 -3 25 -7 70 -10 100 -2 30 -6 78
-10 105 -7 59 -12 107 -19 195 -5 55 -9 88 -14 122 -1 6 -92 55 -366 198 -516
269 -720 377 -1005 531 -74 40 -155 83 -180 97 -25 13 -78 42 -119 64 -41 22
-72 34 -68 27z"/>
<path d="M3521 9853 c8 -9 38 -42 67 -73 58 -62 133 -160 154 -200 7 -14 15
-27 18 -30 20 -20 69 -184 75 -252 4 -35 8 -69 10 -75 6 -18 0 -17 -133 16
-64 16 -130 32 -147 35 -26 4 -46 8 -105 21 -8 2 -36 7 -63 11 -26 3 -50 11
-53 15 -3 5 -9 7 -14 4 -4 -3 -68 4 -141 16 -74 11 -154 22 -179 25 -25 2 -61
6 -80 9 -218 28 -910 62 -910 45 0 -3 -51 -6 -113 -6 -100 -2 -302 -11 -302
-14 0 -1 -22 -3 -50 -5 -27 -3 -66 -6 -85 -9 -19 -2 -62 -7 -95 -10 -116 -13
-117 -14 -35 -47 131 -53 193 -82 250 -118 59 -38 142 -120 134 -133 -3 -4 -2
-8 3 -8 12 0 46 -87 39 -99 -6 -9 -147 -113 -185 -136 -9 -5 -18 -12 -21 -15
-3 -3 -30 -23 -60 -45 -30 -22 -59 -43 -65 -48 -5 -4 -37 -28 -70 -53 -33 -25
-78 -60 -100 -79 -22 -18 -60 -49 -85 -70 -114 -94 -175 -150 -310 -285 -80
-81 -162 -166 -183 -190 -38 -44 -200 -257 -224 -296 -70 -108 -97 -153 -142
-239 -29 -55 -64 -127 -78 -160 -14 -33 -33 -76 -41 -95 -9 -19 -17 -39 -18
-45 -1 -5 -16 -48 -32 -95 -16 -47 -33 -98 -38 -115 -11 -43 -11 -45 -14 -47
-1 -2 -3 -11 -5 -20 -2 -9 -10 -45 -19 -80 -8 -35 -18 -79 -21 -98 -3 -19 -8
-43 -11 -53 -3 -10 -7 -32 -9 -50 -2 -18 -8 -63 -13 -102 -6 -38 -14 -99 -17
-134 l-7 -64 47 59 c26 32 70 80 98 106 50 46 132 96 142 86 3 -3 -1 -43 -10
-89 -8 -46 -16 -100 -19 -119 -2 -19 -7 -46 -10 -60 -6 -22 -11 -59 -20 -140
-1 -14 -6 -40 -10 -58 -5 -19 -9 -43 -11 -55 -10 -80 -17 -125 -21 -147 -3
-14 -7 -47 -10 -75 -2 -27 -9 -75 -14 -105 -5 -30 -11 -73 -14 -95 -9 -71 -27
-209 -31 -245 -2 -19 -7 -64 -10 -100 -3 -36 -8 -87 -11 -115 -29 -263 -50
-869 -32 -907 6 -12 5 -18 -2 -18 -6 0 -8 -5 -4 -12 5 -7 9 -46 11 -88 6 -124
6 -130 12 -130 3 1 29 35 56 78 28 42 68 95 90 118 41 42 106 89 92 67 -5 -8
-3 -13 3 -13 6 0 8 -5 5 -10 -4 -6 -8 -47 -11 -93 -3 -45 -7 -95 -9 -112 -28
-190 -27 -1069 1 -1250 2 -16 6 -59 9 -95 2 -36 5 -65 5 -65 1 0 4 -16 7 -35
2 -19 6 -37 8 -39 3 -3 35 66 37 79 0 3 9 17 20 33 11 15 17 27 13 27 -3 0 6
17 20 37 14 21 25 42 25 48 0 6 11 23 25 38 14 15 22 27 18 27 -4 0 19 25 52
56 57 53 59 54 67 33 5 -13 11 -44 14 -69 3 -25 11 -66 19 -92 8 -27 11 -48 8
-48 -3 0 0 -6 6 -13 6 -8 9 -16 6 -19 -3 -2 4 -34 15 -71 10 -37 20 -71 21
-75 1 -4 3 -11 5 -17 1 -5 14 -48 29 -95 34 -113 98 -284 107 -288 5 -2 8 -11
8 -19 0 -24 142 -307 210 -418 84 -137 84 -138 95 -152 17 -21 29 -38 40 -55
28 -44 52 -76 77 -103 15 -16 28 -34 28 -38 0 -4 10 -18 23 -31 12 -13 37 -41
55 -62 72 -84 241 -250 327 -320 50 -41 97 -80 105 -88 21 -18 138 -99 161
-111 11 -5 19 -13 19 -17 0 -5 5 -8 11 -8 6 0 29 -13 52 -29 23 -15 60 -37 82
-49 117 -59 266 -132 270 -132 2 0 16 -5 32 -12 15 -6 33 -13 38 -14 6 -2 62
-22 125 -44 64 -22 125 -41 135 -43 11 -2 27 -7 35 -10 8 -3 29 -8 45 -11 64
-13 81 -16 105 -22 14 -3 34 -8 45 -10 21 -5 27 -5 205 -29 103 -13 521 -14
615 -1 41 5 96 14 150 22 17 3 46 7 65 9 19 2 35 4 35 5 0 2 15 5 60 13 26 5
52 11 105 22 8 2 15 4 15 5 0 1 7 3 15 5 83 18 119 30 208 68 56 25 102 42
102 38 0 -3 4 -1 8 5 4 5 41 27 82 49 268 137 568 376 755 601 22 26 57 68 78
92 20 24 37 47 37 51 0 4 9 17 20 29 21 23 134 192 171 257 83 147 194 388
229 500 7 22 15 45 19 50 14 24 91 317 85 326 -2 4 0 10 5 13 7 5 20 59 27
119 1 9 3 18 4 20 1 1 4 16 5 32 2 17 4 30 5 30 1 0 3 11 5 25 2 14 6 48 9 75
17 138 19 187 19 390 1 226 -7 354 -27 460 -3 17 -8 52 -10 78 -3 26 -8 53
-12 58 -4 6 -8 23 -9 38 -2 27 -51 225 -62 251 -3 8 -7 18 -8 23 -2 4 -4 9 -5
12 -1 3 -3 9 -4 14 0 5 -4 13 -8 17 -5 4 -8 16 -8 26 0 10 -4 26 -9 36 -5 9
-26 58 -46 107 -48 116 -118 249 -190 361 -32 49 -60 91 -64 94 -3 3 -26 32
-50 65 -54 72 -238 256 -292 292 -21 14 -39 30 -39 34 0 5 -6 9 -14 9 -8 0
-16 3 -18 8 -6 14 -123 86 -231 143 -86 45 -106 59 -95 68 7 6 38 30 68 54 30
23 57 45 58 49 2 5 8 8 12 8 5 0 30 19 56 43 66 60 315 307 339 337 45 55 145
191 145 196 0 3 10 20 23 37 24 35 31 47 73 127 16 30 33 58 39 62 5 4 7 8 3
8 -4 0 7 33 23 72 26 64 60 165 64 193 1 6 3 12 4 15 2 3 4 14 6 25 2 11 6 31
9 45 14 55 18 101 20 235 2 77 0 152 -5 168 -5 18 -4 27 4 27 8 0 8 3 -1 9 -8
4 -13 11 -12 15 3 10 -14 132 -20 139 -1 1 -3 11 -5 22 -21 130 -129 398 -228
570 -23 39 -40 71 -39 73 1 1 -14 25 -33 52 -19 27 -35 54 -35 59 0 5 -3 11
-8 13 -4 2 -32 39 -61 83 -54 79 -172 240 -207 282 -11 12 -28 34 -39 49 -23
31 -124 156 -158 195 -13 14 -34 52 -47 85 -13 32 -29 71 -37 86 -7 15 -12 30
-11 32 2 2 -4 12 -12 22 -8 11 -24 35 -34 54 -27 49 -88 142 -106 160 -8 9
-26 30 -40 47 -46 57 -130 141 -183 185 -28 24 -55 46 -58 51 -11 15 -212 154
-257 177 -26 14 -65 37 -87 51 -22 14 -56 31 -75 39 -19 7 -43 20 -52 28 -10
8 -18 12 -18 9 0 -3 -37 12 -82 33 -46 21 -114 49 -153 62 -38 12 -73 28 -77
33 -4 6 -8 7 -8 3 0 -4 -31 4 -69 17 -81 30 -88 30 -70 8z m-511 -2988 c48 -6
124 -31 163 -52 63 -34 193 -118 227 -148 70 -60 206 -201 250 -260 25 -33 50
-64 56 -70 5 -5 21 -27 35 -47 13 -21 27 -38 32 -38 4 0 7 -5 7 -10 0 -6 28
-49 63 -95 34 -46 89 -121 122 -166 33 -44 67 -89 75 -99 8 -10 31 -38 50 -61
51 -62 178 -189 225 -224 22 -16 42 -33 45 -36 3 -3 13 -10 23 -15 12 -7 -63
-10 -225 -10 -281 1 -521 -14 -658 -39 -14 -2 -43 -7 -65 -10 -23 -3 -52 -8
-65 -10 -14 -3 -38 -8 -55 -11 -16 -2 -48 -10 -70 -16 -22 -5 -51 -12 -65 -14
-46 -8 -285 -82 -335 -103 -11 -5 -45 -19 -75 -31 -80 -33 -223 -103 -238
-118 -8 -7 -17 -10 -22 -7 -5 3 -10 1 -12 -3 -1 -5 -34 -29 -73 -53 -38 -24
-90 -58 -114 -77 l-44 -33 39 5 c22 2 39 5 39 6 0 2 34 9 70 15 17 3 41 7 55
10 33 8 89 17 120 20 14 1 25 3 25 5 0 1 18 3 40 5 23 1 65 6 95 9 130 17 457
22 595 10 39 -3 86 -7 105 -9 62 -5 150 -16 173 -22 12 -3 32 -5 45 -6 12 -1
22 -3 22 -6 0 -4 12 -6 28 -7 38 -1 106 -15 112 -23 3 -3 20 -7 38 -9 35 -4
276 -80 341 -108 186 -81 264 -130 371 -236 64 -63 141 -147 155 -170 6 -8 33
-49 61 -89 59 -85 160 -277 168 -319 1 -3 4 -9 7 -15 4 -5 14 -35 24 -65 10
-30 20 -59 23 -65 3 -5 7 -18 8 -30 1 -11 9 -47 18 -80 34 -133 45 -235 45
-410 0 -163 -1 -185 -8 -185 -3 0 -7 -19 -7 -43 -3 -104 -101 -424 -170 -552
-21 -38 -41 -71 -46 -73 -4 -2 -8 -9 -8 -15 0 -20 -92 -131 -181 -219 -84 -81
-235 -198 -257 -198 -6 0 -12 -4 -14 -8 -11 -27 -349 -165 -453 -186 -16 -3
-43 -8 -60 -12 -16 -3 -46 -7 -66 -8 -20 -2 -41 -6 -47 -10 -7 -4 -12 -2 -12
5 0 7 -4 8 -12 2 -7 -5 -24 -8 -38 -6 -14 1 -60 5 -103 7 -118 7 -283 43 -356
79 -36 17 -67 35 -69 39 -2 4 -8 8 -14 8 -36 0 -240 173 -336 286 -40 47 -150
212 -183 274 -13 25 -27 47 -31 48 -5 2 -8 8 -8 14 0 5 -20 51 -44 101 -38 81
-119 278 -148 362 -5 17 -14 39 -18 50 -23 55 -130 384 -135 413 -3 17 -8 47
-11 65 -3 17 -7 46 -10 62 -2 17 -6 41 -9 55 -8 34 -11 54 -20 125 -4 33 -9
69 -11 80 -2 11 -6 40 -9 65 -5 42 -12 91 -20 150 -2 14 -6 64 -10 112 -3 49
-8 98 -11 110 -13 68 -26 778 -14 778 3 0 6 59 8 132 2 72 5 135 8 140 3 5 7
38 9 74 2 36 6 82 9 102 3 20 8 57 11 82 4 25 13 86 21 135 9 50 17 101 19
115 2 14 6 41 9 60 4 19 8 51 11 70 2 19 7 46 10 60 3 14 7 34 9 45 10 70 96
262 157 352 39 56 149 169 199 204 75 52 159 86 233 95 29 4 53 7 55 9 3 2 45
-1 102 -10z"/>
<path d="M9486 8072 c-2 -1 -189 -5 -416 -7 -227 -2 -414 -6 -417 -9 -2 -2
-18 0 -34 4 -17 5 -31 5 -35 -1 -4 -6 -10 -6 -18 0 -7 6 -16 8 -19 4 -6 -6
-370 -9 -1623 -16 -308 -2 -566 -7 -572 -11 -7 -4 -12 -4 -12 1 0 4 -16 8 -35
8 -19 0 -35 -2 -35 -5 0 -3 -15 -5 -32 -3 -18 2 -42 4 -53 3 -11 -1 -113 -2
-227 -3 -115 -1 -208 -3 -208 -6 0 -10 55 -116 62 -119 4 -2 8 -9 8 -15 0 -5
24 -67 54 -136 30 -70 59 -147 66 -171 7 -25 15 -49 18 -55 4 -5 7 -13 8 -17
1 -5 2 -9 4 -10 1 -2 3 -10 5 -18 2 -8 15 -60 29 -115 24 -93 34 -152 40 -232
1 -18 6 -36 10 -40 11 -11 406 -10 406 2 0 5 5 4 11 -2 7 -7 21 -8 40 -3 17 5
31 5 35 -1 3 -5 10 -7 15 -3 10 6 652 13 1481 17 219 1 398 6 398 10 0 5 5 5
12 1 14 -9 114 -8 128 1 6 3 10 1 10 -5 0 -6 5 -8 10 -5 10 6 240 9 1358 17
150 1 275 5 277 8 2 3 -8 30 -22 60 -14 30 -26 60 -27 65 -1 6 -13 33 -25 60
-13 28 -29 64 -37 80 -25 57 -196 451 -241 555 -25 58 -47 107 -49 109 -5 5
-344 8 -348 3z"/>
<path d="M8260 6965 c0 -6 -19 -11 -42 -11 -24 -1 -92 -5 -153 -8 -176 -11
-319 -16 -480 -19 -83 -2 -157 -7 -164 -12 -10 -6 -12 -4 -6 5 5 9 4 11 -4 6
-12 -8 -126 -9 -256 -2 -109 6 -112 5 -107 -47 10 -102 1 -3505 -10 -3680 -2
-26 0 -47 4 -47 4 0 3 -11 -2 -25 -6 -16 -6 -25 1 -25 6 0 6 -7 1 -17 -9 -21
-9 -84 2 -101 4 -7 3 -12 -1 -12 -8 0 -10 -98 -3 -125 1 -5 1 -12 0 -15 -3 -8
-9 -720 -12 -1539 -1 -541 1 -766 9 -768 6 -2 31 24 56 59 26 35 50 68 55 73
5 6 13 17 18 26 9 16 52 72 86 111 9 10 31 38 50 60 142 177 424 444 623 591
28 20 55 40 60 45 33 26 184 122 193 122 6 0 12 4 14 8 4 11 65 46 203 118
131 69 124 59 112 154 -4 25 -9 66 -12 93 -10 95 -15 132 -19 152 -2 11 -7 54
-10 95 -4 41 -9 89 -11 105 -3 17 -7 50 -10 75 -2 25 -6 56 -9 70 -3 14 -7 54
-10 90 -3 36 -6 65 -6 65 -2 0 -12 97 -13 137 -1 21 -4 38 -7 38 -4 0 -6 10
-7 23 -1 31 -12 175 -17 217 -3 19 -7 67 -11 105 -4 39 -8 84 -10 100 -2 17
-6 73 -10 125 -3 52 -8 113 -10 135 -3 22 -7 78 -10 125 -4 47 -8 101 -10 120
-2 19 -6 87 -9 150 -3 63 -8 162 -11 220 -4 58 -8 156 -9 218 -2 62 -6 115 -9
119 -4 3 -2 14 4 24 5 11 6 19 2 19 -16 0 -22 1399 -9 1920 12 482 12 512 -1
529 -7 9 -13 11 -13 6z"/>
</g>
</svg>
