<?xml version="1.0" encoding="UTF-8" standalone="no"?>
<!-- Created with Inkscape (http://www.inkscape.org/) -->

<svg
   xmlns:dc="http://purl.org/dc/elements/1.1/"
   xmlns:cc="http://creativecommons.org/ns#"
   xmlns:rdf="http://www.w3.org/1999/02/22-rdf-syntax-ns#"
   xmlns:svg="http://www.w3.org/2000/svg"
   xmlns="http://www.w3.org/2000/svg"
   xmlns:sodipodi="http://sodipodi.sourceforge.net/DTD/sodipodi-0.dtd"
   xmlns:inkscape="http://www.inkscape.org/namespaces/inkscape"
   version="1.1"
   id="svg7308"
   width="255.74721"
   height="238.26204"
   viewBox="0 0 255.74721 238.26204"
   sodipodi:docname="logo.svg"
   inkscape:version="0.92.1 r15371">
  <metadata
     id="metadata7314">
    <rdf:RDF>
      <cc:Work
         rdf:about="">
        <dc:format>image/svg+xml</dc:format>
        <dc:type
           rdf:resource="http://purl.org/dc/dcmitype/StillImage" />
        <dc:title></dc:title>
      </cc:Work>
    </rdf:RDF>
  </metadata>
  <defs
     id="defs7312" />
  <sodipodi:namedview
     pagecolor="#ffffff"
     bordercolor="#666666"
     borderopacity="1"
     objecttolerance="10"
     gridtolerance="10"
     guidetolerance="10"
     inkscape:pageopacity="0"
     inkscape:pageshadow="2"
     inkscape:window-width="1920"
     inkscape:window-height="1017"
     id="namedview7310"
     showgrid="false"
     inkscape:zoom="2.8284271"
     inkscape:cx="110.70529"
     inkscape:cy="109.64893"
     inkscape:window-x="-8"
     inkscape:window-y="-8"
     inkscape:window-maximized="1"
     inkscape:current-layer="layer2"
     fit-margin-top="0"
     fit-margin-left="0"
     fit-margin-right="0"
     fit-margin-bottom="0"
     inkscape:pagecheckerboard="true" />
  <g
     inkscape:groupmode="layer"
     id="layer2"
     inkscape:label="Layer 2"
     style="display:inline">
    <path
       style="display:inline;fill:#00ff00;stroke-width:0.22993319"
       d="m 15.23533,171.9681 c -3.30973,2.2978 -4.47755,5.0419 -6.8988399,10.2355 -2.12795,-15.1771 -1.39545,-31.30589 -0.22397,-43.26909 -3.02793,1.6714 -4.3737501,4.173 -6.1765401,7.1683 C -2.3e-4,126.12361 4.0887001,101.21711 7.3251101,81.635701 3.9042801,83.052502 2.74785,84.576902 0,88.149402 2.6088,54.752701 22.21812,38.443601 44.36045,22.914001 c -1.67951,-5.318 -5.02255,-6.7114 -12.73761,-9.6457 23.88053,-3.5625997 50.224826,-0.2134 64.395545,3.8565 C 96.101085,9.7518013 92.098156,5.0301013 87.488476,0.42910129 103.07314,4.9989013 119.06251,14.361901 123.99072,29.512801 c 11.21747,13.4957 23.76953,29.3872 21.84457,48.0445 -1.6313,14.733701 -12.45105,26.294709 -23.90958,34.680609 44.45384,18.7354 41.11304,102.46259 -13.74746,123.02569 -48.577254,13.3309 -85.93548,-19.5791 -92.94292,-63.2955 z m 80.586835,26.993 c 12.780495,-2.1517 24.956735,-10.3243 28.842105,-23.1706 6.47429,-17.12509 0.43419,-38.73249 -14.82618,-49.20119 -16.281654,-8.1436 -35.738684,-8.6272 -53.20997,-4.6726 14.791306,-11.5813 35.361686,-13.953 53.40321,-13.0076 -12.265035,-8.1292 -16.511904,-24.283108 -29.480984,-31.396909 -12.86775,-7.8204 -23.861786,6.241501 -24.699206,18.307201 -4.11341,20.542108 -3.06469,41.893208 0.86797,62.326108 5.060166,14.88149 10.161986,33.07359 26.034116,39.64679 4.26335,0.9181 8.69864,1.7363 13.068939,1.1688 z m 79.771225,35.1276 c -0.31704,-46.5086 1.22099,-113.60719 0.46971,-160.110999 0,0 6.4022,0.9165 30.83836,-0.7416 -2.15248,68.686109 1.72912,94.572699 5.75329,128.855499 -14.99183,6.9211 -27.49924,18.3832 -36.68951,31.9649 l -0.37179,0.032 z M 151.03342,69.756901 c 0.0806,-7.27 -4.99897,-19.1532 -7.57648,-23.4156 33.32271,-0.3703 68.7634,-0.3724 102.08095,-0.9969 l 10.20931,23.396 z m 23.67477,-28.7885 C 173.99824,30.666601 172.66937,14.345801 166.07214,1.286452e-6 178.75321,7.1091013 196.72703,16.244701 209.54616,23.045601 l 1.71113,17.0005 c -9.41241,-0.167 -30.67774,1.4092 -36.5491,0.9223 z"
       id="path7863-0-8"
       inkscape:connector-curvature="0"
       sodipodi:nodetypes="cccccccccccccccccccccccccccccccccccccccccc"
       inkscape:export-xdpi="96"
       inkscape:export-ydpi="96" />
  </g>
  <g
     inkscape:groupmode="layer"
     id="layer1"
     inkscape:label="Layer 1"
     style="display:inline">
    <path
       style="fill:#000000;stroke-width:0.22993319"
       d="m 15.23533,171.9681 c -3.30973,2.2978 -4.47755,5.0419 -6.8988399,10.2355 -2.12795,-15.1771 -1.39545,-31.30589 -0.22397,-43.26909 -3.02793,1.6714 -4.3737501,4.173 -6.1765401,7.1683 C -2.3e-4,126.12361 4.0887001,101.21711 7.3251101,81.6357 3.9042801,83.0525 2.74785,84.5769 0,88.1494 2.6088,54.7527 22.21812,38.4436 44.36045,22.914 42.68094,17.596 39.3379,16.2026 31.62284,13.2683 55.50337,9.7057005 81.847666,13.0549 96.018385,17.1248 96.101085,9.7518005 92.098156,5.0301005 87.488476,0.42910044 103.07314,4.9989005 119.06251,14.3619 123.99072,29.5128 c 11.21747,13.4957 23.76953,29.3872 21.84457,48.0445 -1.6313,14.7337 -12.45105,26.29471 -23.90958,34.68061 44.45384,18.7354 41.11304,102.46259 -13.74746,123.02569 -48.577254,13.3309 -85.93548,-19.5791 -92.94292,-63.2955 z m 119.90879,32.9434 c 24.97065,-47.82889 1.85825,-97.87949 -43.051174,-88.60439 39.324184,4.8242 50.105274,50.16429 27.957664,77.75769 -13.33097,14.6254 -40.327264,16.39 -53.497384,0.5596 C 52.74609,178.894 47.71332,157.20521 46.66626,136.77551 44.22116,65.5903 71.752286,59.624 91.984006,80.7978 c 5.783769,6.0531 9.725764,14.9923 14.987054,20.37111 3.7335,4.3993 3.67692,3.9515 6.06996,2.3586 -4.51465,-5.17271 -8.71392,-13.79451 -7.27218,-22.47081 6.9606,-21.0693 19.00771,7.9453 15.6614,22.86881 15.78643,-7.65491 20.56066,-28.08221 15.36764,-41.76561 -2.2433,-11.6257 -10.60001,-20.31 -18.21001,-28.7715 -3.62122,-9.2983 -10.14032,-18.7379 -19.316745,-22.5328 2.250515,3.8204 2.178485,9.2765 0.47993,14.2274 -16.050759,-6.522 -34.855449,-8.9895 -49.049685,-7.9646 2.13916,1.9247 2.96838,3.8781 3.12872,5.9859 C 33.17526,35.1239 13.46236,54.9966 9.4842701,69.5109 11.57407,67.6348 13.41105,65.6956 16.89922,64.6794 12.97358,84.79 8.2680601,101.44571 7.0938701,129.52571 c 2.40856,-2.346 3.9375199,-5.208 9.6109899,-8.3294 -4.00661,12.4416 -4.16725,23.8877 -4.62802,42.428 3.19624,-2.9792 4.29794,-3.9241 6.02509,-4.6408 9.77531,69.58809 82.66913,98.28539 117.04219,45.92799 z m -69.615704,7.3298 c 1.39961,-2.0469 6.89341,-0.542 11.75177,-3.3023 4.46498,1.1676 9.38996,1.9243 13.58276,2.0439 7.166629,0.6047 27.014724,-7.8925 11.450864,5.0159 -5.246455,5.0132 15.30808,4.8105 2.19539,8.8776 -11.575234,3.5597 -41.361064,-5.153 -38.980784,-12.6351 z m 47.448974,-4.2532 c 7.61018,-4.4321 14.66676,-11.7314 18.96334,-17.1497 1.28563,-1.6213 3.14811,-4.4974 2.75682,0.1131 -1.23695,12.3141 -15.18692,28.7136 -23.6628,27.7817 -10.57966,-1.1802 -0.53527,-3.1882 1.94264,-10.7451 z M 62.349216,218.3074 C 43.13827,210.0518 30.62975,189.6266 28.99714,169.0904 c -0.20946,-4.79599 3.60581,-0.4084 8.3065,-0.6717 6.63266,-1.3347 6.81283,-8.51259 10.44762,7.0354 3.12941,14.2903 9.46554,24.5956 23.828466,31.125 -5.39919,2.9301 -13.96202,-1.218 -13.72923,2.9578 0.82098,2.6978 1.67225,4.2723 4.49872,8.7705 z m 74.860144,-28.7127 c 0.17283,-3.7604 0.21948,-7.25 -1.07542,-7.8278 -0.84125,-0.3754 -4.48499,4.4754 -4.98714,3.026 4.0651,-9.703 4.96069,-19.96869 3.51998,-29.96509 -1.44071,-9.9964 -5.21772,-19.7234 -10.49781,-28.3489 15.37719,11.7607 19.71564,34.4316 16.54535,52.51129 -0.83147,2.9582 -1.89102,10.8459 -3.50496,10.6045 z M 33.13456,156.10971 c -12.92239,-7.9877 -13.40808,-33.7421 -12.42745,-48.0365 1.54677,-16.90321 5.04155,-5.5442 12.41028,-6.7843 9.46556,-1.4657 10.06307,-6.74611 9.11496,4.2612 -1.54165,13.9069 -2.32774,16.0979 -1.07528,45.943 -0.9723,4.1902 -4.17442,5.8552 -8.02251,4.6166 z m -22.4506,-35.3521 c 1.47626,-11.4975 3.4087,-24.32751 7.09463,-35.36161 -0.42045,8.3592 -0.7543,20.53991 -0.564,29.95561 -2.68371,1.468 -4.2412,2.5087 -6.53063,5.406 z M 125.85792,95.7741 c 2.20426,-12.8152 -5.29479,-25.7771 -13.75065,-34.762 13.34922,-0.9909 10.53588,-12.9216 16.47773,-5.5111 4.58675,5.8077 7.84849,32.8606 -2.72708,40.2731 z M 34.31505,93.522 C 10.71951,88.6497 32.05689,51.0116 43.59897,43.643 41.90124,52.9259 48.10742,60.4365 53.34369,66.4554 43.1772,75.3251 48.89557,94.7524 34.31505,93.522 Z M 93.522826,68.4311 C 83.307006,61.2121 69.250386,60.2413 57.26938,62.4823 62.242196,56.3935 74.031536,56.4064 79.023366,52.4771 69.624476,47.8793 57.560836,46.4658 48.46043,44.7907 74.658716,33.73 120.7696,58.6978 93.522826,68.4311 Z M 18.10476,57.9811 c 2.04336,-4.6846 11.08704,-14.6495 15.01611,-12.4778 -5.20533,4.2531 -6.10093,5.8737 -7.93972,10.6243 -2.68836,-0.034 -6.17585,1.828 -7.07639,1.8535 z m 90.52739,-3.1138 C 90.401806,38.5276 70.693406,35.4473 47.5362,38.4899 c 16.085376,-13.1393 67.20012,-10.2086 73.01488,8.6165 0.77502,6.0082 -7.97529,11.7502 -11.91893,7.7609 z m 6.11948,-4.3015 c 0.15813,-2.5223 -2.57297,-5.664 -3.14178,-6.4414 -0.21407,1.9166 -1.33154,3.5242 -4.23043,4.0635 0.58518,0.8594 4.35644,3.0237 7.37221,2.3779 z m -8.95164,-3.958 c 0.82659,-1.922 0.65856,-3.3203 3.93992,-4.1874 -2.75902,-2.813 -10.477835,-4.7691 -12.723175,-4.364 3.218815,1.9776 6.232215,4.795 8.783255,8.5514 z m -9.977825,152.3533 c 12.780495,-2.1517 24.956735,-10.3243 28.842105,-23.1706 6.47429,-17.12509 0.43419,-38.73249 -14.82618,-49.20119 -16.281654,-8.1436 -35.738684,-8.6272 -53.20997,-4.6726 14.791306,-11.5813 35.361686,-13.953 53.40321,-13.0076 C 97.766295,100.77991 93.519426,84.626 80.550346,77.5122 67.682596,69.6918 56.68856,83.7537 55.85114,95.8194 c -4.11341,20.54211 -3.06469,41.89321 0.86797,62.32611 5.060166,14.88149 10.161986,33.07359 26.034116,39.64679 4.26335,0.9181 8.69864,1.7363 13.068939,1.1688 z m 79.771225,35.1276 c -0.31704,-46.5086 1.22099,-113.60719 0.46971,-160.111 0,0 6.4022,0.9165 30.83836,-0.7416 -2.15248,68.68611 1.72912,94.5727 5.75329,128.8555 -14.99183,6.9211 -27.49924,18.3832 -36.68951,31.9649 l -0.37179,0.032 z m 7.15169,-18.5843 c 8.53603,-6.45 16.92279,-13.7979 23.9267,-16.9385 -8.48864,-83.20119 -4.36288,-101.9634 -5.10051,-119.751 -10.06196,-0.132 -19.12679,0.4721 -19.12679,0.4721 0.1692,33.89191 0.80516,37.12081 0.3006,136.2174 z M 151.03342,69.7569 c 0.0806,-7.27 -4.99897,-19.1532 -7.57648,-23.4156 33.32271,-0.3703 68.7634,-0.3724 102.08095,-0.9969 l 10.20931,23.396 z m 96.13089,-8.7049 -4.9901,-12.1045 c -22.93161,0.533 -66.39458,1.2649 -89.32862,0.7294 1.90315,9.723 2.89896,12.271 2.89896,12.271 31.2487,-0.4465 64.36384,-0.3227 91.41976,-0.8959 z M 174.70819,40.9684 C 173.99824,30.6666 172.66937,14.3458 166.07214,4.3645197e-7 178.75321,7.1091005 196.72703,16.2447 209.54616,23.0456 l 1.71113,17.0005 c -9.41241,-0.167 -30.67774,1.4092 -36.5491,0.9223 z m 6.40447,-6.3629 24.18639,-0.02 -1.05843,-8.8991 C 178.84115,12.9601 202.8635,24.733 177.46403,12.0067 Z"
       id="path7863-0"
       inkscape:connector-curvature="0"
       sodipodi:nodetypes="ccccccccccccccccccccscccccccccccccccccccccccccsccccccccccccscccccccccccccccccccccccccccccccccccccccccccccccccccccccccccccccccccccccccccccccccccc"
       inkscape:export-xdpi="96"
       inkscape:export-ydpi="96" />
  </g>
</svg>
