<?xml version="1.0" encoding="UTF-8" standalone="no"?>
<!-- Created with Inkscape (http://www.inkscape.org/) -->

<svg
   xmlns:dc="http://purl.org/dc/elements/1.1/"
   xmlns:cc="http://creativecommons.org/ns#"
   xmlns:rdf="http://www.w3.org/1999/02/22-rdf-syntax-ns#"
   xmlns:svg="http://www.w3.org/2000/svg"
   xmlns="http://www.w3.org/2000/svg"
   xmlns:sodipodi="http://sodipodi.sourceforge.net/DTD/sodipodi-0.dtd"
   xmlns:inkscape="http://www.inkscape.org/namespaces/inkscape"
   version="1.1"
   id="svg7308"
   width="255.74721"
   height="238.26204"
   viewBox="0 0 255.74721 238.26204"
   sodipodi:docname="logo.svg"
   inkscape:version="0.92.1 r15371">
  <metadata
     id="metadata7314">
    <rdf:RDF>
      <cc:Work
         rdf:about="">
        <dc:format>image/svg+xml</dc:format>
        <dc:type
           rdf:resource="http://purl.org/dc/dcmitype/StillImage" />
        <dc:title></dc:title>
      </cc:Work>
    </rdf:RDF>
  </metadata>
  <defs
     id="defs7312" />
  <sodipodi:namedview
     pagecolor="#ffffff"
     bordercolor="#666666"
     borderopacity="1"
     objecttolerance="10"
     gridtolerance="10"
     guidetolerance="10"
     inkscape:pageopacity="0"
     inkscape:pageshadow="2"
     inkscape:window-width="1920"
     inkscape:window-height="1057"
     id="namedview7310"
     showgrid="false"
     inkscape:zoom="2.8284271"
     inkscape:cx="110.60315"
     inkscape:cy="104.09313"
     inkscape:window-x="1912"
     inkscape:window-y="-8"
     inkscape:window-maximized="1"
     inkscape:current-layer="svg7308"
     fit-margin-top="0"
     fit-margin-left="0"
     fit-margin-right="0"
     fit-margin-bottom="0"
     inkscape:pagecheckerboard="true" />
  <path
     style="display:inline;fill:#00ff00;stroke-width:0.22993319"
     d="m 15.23533,171.9681 c -3.30973,2.2978 -4.47755,5.0419 -6.8988399,10.2355 -2.12795,-15.1771 -1.39545,-31.30589 -0.22397,-43.26909 -3.02793,1.6714 -4.3737501,4.173 -6.1765401,7.1683 C -2.3e-4,126.12361 4.0887001,101.21711 7.3251101,81.635701 3.9042801,83.052502 2.74785,84.576902 0,88.149402 2.6088,54.752701 22.21812,38.443601 44.36045,22.914001 c -1.67951,-5.318 -5.02255,-6.7114 -12.73761,-9.6457 23.88053,-3.5625997 50.224826,-0.2134 64.395545,3.8565 C 96.101085,9.7518013 92.098156,5.0301013 87.488476,0.42910129 103.07314,4.9989013 119.06251,14.361901 123.99072,29.512801 c 11.21747,13.4957 23.76953,29.3872 21.84457,48.0445 -1.6313,14.733701 -12.45105,26.294709 -23.90958,34.680609 44.45384,18.7354 41.11304,102.46259 -13.74746,123.02569 -48.577254,13.3309 -85.93548,-19.5791 -92.94292,-63.2955 z m 80.586835,26.993 c 12.780495,-2.1517 24.956735,-10.3243 28.842105,-23.1706 6.47429,-17.12509 0.43419,-38.73249 -14.82618,-49.20119 -16.281654,-8.1436 -35.738684,-8.6272 -53.20997,-4.6726 14.791306,-11.5813 35.361686,-13.953 53.40321,-13.0076 -12.265035,-8.1292 -16.511904,-24.283108 -29.480984,-31.396909 -12.86775,-7.8204 -23.861786,6.241501 -24.699206,18.307201 -4.11341,20.542108 -3.06469,41.893208 0.86797,62.326108 5.060166,14.88149 10.161986,33.07359 26.034116,39.64679 4.26335,0.9181 8.69864,1.7363 13.068939,1.1688 z m 79.771225,35.1276 c -0.31704,-46.5086 1.22099,-113.60719 0.46971,-160.110999 0,0 6.4022,0.9165 30.83836,-0.7416 -2.15248,68.686109 1.72912,94.572699 5.75329,128.855499 -14.99183,6.9211 -27.49924,18.3832 -36.68951,31.9649 l -0.37179,0.032 z M 151.03342,69.756901 c 0.0806,-7.27 -4.99897,-19.1532 -7.57648,-23.4156 33.32271,-0.3703 68.7634,-0.3724 102.08095,-0.9969 l 10.20931,23.396 z m 23.67477,-28.7885 C 173.99824,30.666601 172.66937,14.345801 166.07214,1.286452e-6 178.75321,7.1091013 196.72703,16.244701 209.54616,23.045601 l 1.71113,17.0005 c -9.41241,-0.167 -30.67774,1.4092 -36.5491,0.9223 z"
     id="background"
     inkscape:connector-curvature="0"
     sodipodi:nodetypes="cccccccccccccccccccccccccccccccccccccccccc"
     inkscape:export-xdpi="96"
     inkscape:export-ydpi="96" />
  <path
     style="fill:#000000;stroke-width:0.22993319"
     d="M 166.07227 0 C 172.6695 14.3458 173.99903 30.66695 174.70898 40.96875 C 180.58034 41.45565 201.8454 39.879875 211.25781 40.046875 L 209.54688 23.044922 C 196.72774 16.244022 178.75334 7.1091001 166.07227 0 z M 87.488281 0.4296875 C 92.097961 5.0306876 96.100278 9.7520005 96.017578 17.125 C 81.846859 13.0551 55.503577 9.7049787 31.623047 13.267578 C 39.338107 16.201878 42.681818 17.596063 44.361328 22.914062 C 22.218998 38.443663 2.6088 54.751736 0 88.148438 C 2.74785 84.575937 3.9033887 83.051566 7.3242188 81.634766 C 4.0878087 101.21618 -0.00066315 126.12432 1.9355469 146.10352 C 3.7383369 143.10822 5.0853514 140.60499 8.1132812 138.93359 C 6.9418013 150.89679 6.2079875 167.02604 8.3359375 182.20312 C 10.757227 177.00952 11.924645 174.26655 15.234375 171.96875 C 22.241815 215.68515 59.600484 248.59457 108.17773 235.26367 C 163.03823 214.70057 166.37962 130.97368 121.92578 112.23828 C 133.38431 103.85238 144.20464 92.290341 145.83594 77.556641 C 147.7609 58.899341 135.2077 43.009372 123.99023 29.513672 C 119.06202 14.362772 103.07295 4.9994876 87.488281 0.4296875 z M 99.271484 10.855469 C 108.44791 14.650369 114.96667 24.090372 118.58789 33.388672 C 126.19789 41.850172 134.55553 50.534456 136.79883 62.160156 C 141.99185 75.843556 137.21612 96.270872 121.42969 103.92578 C 124.776 89.002272 112.73013 59.987341 105.76953 81.056641 C 104.32779 89.732941 108.52637 98.354638 113.04102 103.52734 C 110.64798 105.12024 110.7042 105.56727 106.9707 101.16797 C 101.70941 95.789158 97.768144 86.849975 91.984375 80.796875 C 71.752655 59.623075 44.220916 65.590182 46.666016 136.77539 C 47.713076 157.20509 52.745598 178.8946 66.552734 194.625 C 79.722854 210.4554 106.71981 208.68985 120.05078 194.06445 C 142.19839 166.47105 131.41793 121.13084 92.09375 116.30664 C 137.00317 107.03154 160.11518 157.08322 135.14453 204.91211 C 100.77147 257.26951 27.876873 228.57246 18.101562 158.98438 C 16.374412 159.70108 15.272412 160.6458 12.076172 163.625 C 12.536942 145.0847 12.698468 133.63887 16.705078 121.19727 C 11.031608 124.31867 9.50231 127.17939 7.09375 129.52539 C 8.26794 101.44539 12.972798 84.790288 16.898438 64.679688 C 13.410268 65.695887 11.574175 67.635619 9.484375 69.511719 C 13.462465 54.997419 33.175248 35.123116 53.830078 23.103516 C 53.669738 20.995716 52.840332 19.043841 50.701172 17.119141 C 64.895408 16.094241 83.701194 18.560031 99.751953 25.082031 C 101.45051 20.131131 101.522 14.675869 99.271484 10.855469 z M 177.46484 12.005859 C 202.86431 24.732159 178.84076 12.959247 204.24023 25.685547 L 205.29883 34.585938 L 181.11328 34.605469 L 177.46484 12.005859 z M 79.097656 30.421875 C 66.386396 30.467134 54.071793 33.152394 47.537109 38.490234 C 70.694315 35.447634 90.402471 38.527487 108.63281 54.867188 C 112.57645 58.856488 121.3258 53.113669 120.55078 47.105469 C 117.09827 35.928066 97.675652 30.355728 79.097656 30.421875 z M 97.5 38.007812 C 100.20822 37.899226 107.15365 39.782734 109.74023 42.419922 C 106.45887 43.287022 106.62737 44.685422 105.80078 46.607422 C 103.24974 42.851022 100.23639 40.034241 97.017578 38.056641 C 97.157912 38.031322 97.319452 38.015052 97.5 38.007812 z M 62.550781 42.029297 C 57.592774 42.130814 52.759093 42.976369 48.460938 44.791016 C 57.561343 46.466116 69.624548 47.878763 79.023438 52.476562 C 74.031608 56.405862 62.242347 56.393622 57.269531 62.482422 C 69.250537 60.241422 83.307618 61.212641 93.523438 68.431641 C 115.66144 60.523334 89.370654 42.557565 64.681641 42.03125 C 63.969457 42.016068 63.259068 42.014794 62.550781 42.029297 z M 43.599609 43.642578 C 32.057529 51.011178 10.718913 88.649184 34.314453 93.521484 C 48.894973 94.751884 43.17726 75.324778 53.34375 66.455078 C 48.10748 60.436178 41.901879 52.925478 43.599609 43.642578 z M 111.60938 44.125 C 112.17818 44.9024 114.91008 48.044106 114.75195 50.566406 C 111.73618 51.212206 107.96409 49.0469 107.37891 48.1875 C 110.2778 47.6482 111.39529 46.0416 111.60938 44.125 z M 31.890625 45.197266 C 27.557318 45.152709 19.957264 53.73505 18.105469 57.980469 C 19.006009 57.954969 22.493281 56.092953 25.181641 56.126953 C 27.020431 51.376353 27.915764 49.757006 33.121094 45.503906 C 32.752743 45.300309 32.338898 45.201875 31.890625 45.197266 z M 245.53711 45.34375 C 212.21956 45.96825 176.77974 45.971497 143.45703 46.341797 C 146.03454 50.604197 151.1138 62.487814 151.0332 69.757812 L 255.74805 68.740234 L 245.53711 45.34375 z M 242.17383 48.947266 L 247.16406 61.052734 C 220.10814 61.625934 186.99284 61.500766 155.74414 61.947266 C 155.74414 61.947266 154.74885 59.400734 152.8457 49.677734 C 175.77974 50.213234 219.24222 49.480266 242.17383 48.947266 z M 125.38086 53.095703 C 123.03965 53.371356 122.11934 60.268544 112.10742 61.011719 C 120.56328 69.996619 128.06168 82.958236 125.85742 95.773438 C 136.43299 88.360937 133.17269 61.309653 128.58594 55.501953 C 127.10048 53.649328 126.16126 53.003819 125.38086 53.095703 z M 206.90234 73.236328 C 182.46618 74.894428 176.0625 73.978516 176.0625 73.978516 C 176.81378 120.48233 175.27671 187.57929 175.59375 234.08789 L 175.96484 234.05664 C 185.15511 220.47494 197.66247 209.0129 212.6543 202.0918 C 208.63013 167.809 204.74986 141.92244 206.90234 73.236328 z M 72.666016 75.261719 C 72.962947 75.251194 73.262967 75.252144 73.564453 75.263672 C 75.790812 75.3488 78.138078 76.045394 80.550781 77.511719 C 93.519861 84.625519 97.766215 100.779 110.03125 108.9082 C 91.989726 107.9628 71.420212 110.33472 56.628906 121.91602 C 74.100192 117.96142 93.556238 118.44624 109.83789 126.58984 C 125.09826 137.05854 131.13835 158.66593 124.66406 175.79102 C 120.77869 188.63732 108.60276 196.80924 95.822266 198.96094 C 91.451967 199.52844 87.017256 198.71107 82.753906 197.79297 C 66.881776 191.21977 61.778916 173.02797 56.71875 158.14648 C 52.78609 137.71358 51.738153 116.36242 55.851562 95.820312 C 56.510704 86.323287 63.461145 75.587986 72.666016 75.261719 z M 197.86133 78.796875 C 199.07216 78.792989 200.31257 78.797953 201.57031 78.814453 C 202.30794 96.602053 198.18323 115.36522 206.67188 198.56641 C 199.66797 201.70701 191.28017 209.05391 182.74414 215.50391 C 183.2487 116.40732 182.61451 113.17902 182.44531 79.287109 C 182.44531 79.287109 189.38554 78.824074 197.86133 78.796875 z M 17.779297 85.396484 C 14.093367 96.430584 12.159854 109.26031 10.683594 120.75781 C 12.973024 117.86051 14.531134 116.81956 17.214844 115.35156 C 17.024544 105.93586 17.358847 93.755684 17.779297 85.396484 z M 24.017578 98.695312 C 22.433865 98.693073 21.383743 100.67711 20.707031 108.07227 C 19.726401 122.36667 20.212376 148.12168 33.134766 156.10938 C 36.982856 157.34797 40.18395 155.68239 41.15625 151.49219 C 39.90379 121.64709 40.690772 119.45768 42.232422 105.55078 C 43.180532 94.543472 42.582746 99.823365 33.117188 101.28906 C 28.972276 101.98662 26.053781 98.698193 24.017578 98.695312 z M 124.16992 126.47852 C 129.45001 135.10402 133.22531 144.83173 134.66602 154.82812 C 136.10673 164.82452 135.21158 175.08997 131.14648 184.79297 C 131.64863 186.24237 135.29352 181.39218 136.13477 181.76758 C 137.42967 182.34538 137.38181 185.83335 137.20898 189.59375 C 138.82292 189.83515 139.88337 181.94843 140.71484 178.99023 C 143.88513 160.91054 139.54711 138.23922 124.16992 126.47852 z M 43.652344 165.60547 C 42.32387 165.62328 40.619064 167.75062 37.302734 168.41797 C 32.602044 168.68127 28.788587 164.29385 28.998047 169.08984 C 30.630657 189.62604 43.138663 210.05104 62.349609 218.30664 C 59.523139 213.80844 58.670589 212.23491 57.849609 209.53711 C 57.616819 205.36131 66.180888 209.50823 71.580078 206.57812 C 57.217152 200.04872 50.881363 189.74343 47.751953 175.45312 C 45.934558 167.67913 44.980818 165.58766 43.652344 165.60547 z M 134.33594 188.46289 C 133.77282 188.32238 132.74492 189.82458 131.94141 190.83789 C 127.64483 196.25619 120.58674 203.55618 112.97656 207.98828 C 110.49865 215.54518 100.4555 217.55222 111.03516 218.73242 C 119.51104 219.66432 133.46032 203.26527 134.69727 190.95117 C 134.844 189.22223 134.67381 188.54719 134.33594 188.46289 z M 106.43359 208.79297 C 102.93697 208.78294 94.89451 211.32257 90.863281 210.98242 C 86.670481 210.86282 81.744277 210.10705 77.279297 208.93945 C 72.420937 211.69975 66.928907 210.19529 65.529297 212.24219 C 63.149017 219.72429 92.934528 228.43665 104.50977 224.87695 C 117.62246 220.80985 97.068001 221.01125 102.31445 215.99805 C 109.12364 210.35062 109.15319 208.80077 106.43359 208.79297 z "
     id="outline" />
</svg>
