<?xml version="1.0" standalone="no"?>
<!DOCTYPE svg PUBLIC "-//W3C//DTD SVG 20010904//EN"
 "http://www.w3.org/TR/2001/REC-SVG-20010904/DTD/svg10.dtd">
<svg version="1.0" xmlns="http://www.w3.org/2000/svg"
 width="260.000000pt" height="260.000000pt" viewBox="0 0 260.000000 260.000000"
 preserveAspectRatio="xMidYMid meet">
<metadata>
Created by potrace 1.11, written by Peter Selinger 2001-2013
</metadata>
<g transform="translate(0.000000,260.000000) scale(0.100000,-0.100000)"
fill="#000000" stroke="none">
<path d="M569 2596 c-2 -2 -17 -6 -34 -9 -57 -9 -153 -46 -216 -84 -130 -77
-231 -204 -287 -362 l-27 -76 0 -765 0 -765 28 -80 c38 -106 85 -182 163 -259
77 -78 153 -125 259 -163 l80 -28 735 -2 c425 -1 754 2 780 7 25 5 54 11 65
14 92 20 209 90 294 175 73 75 121 152 158 256 l28 80 2 735 c1 477 -1 754 -8
790 -24 127 -92 252 -189 350 -69 69 -152 120 -255 157 l-80 28 -746 3 c-410
1 -747 0 -750 -2z"/>
</g>
</svg>
